<?xml version="1.0" encoding="UTF-8"?>
<svg width="96px" height="96px" viewBox="0 0 32 32" version="1.1" xmlns="http://www.w3.org/2000/svg" xmlns:xlink="http://www.w3.org/1999/xlink">
    <!-- Generator: Sketch 49.3 (51167) - http://www.bohemiancoding.com/sketch -->
    <title>appconnect</title>
    <desc>Created with Sketch.</desc>
    <defs></defs>
    <g id="Page-1" stroke="none" stroke-width="1" fill="none" fill-rule="evenodd">
        <g id="appconnect" fill-rule="nonzero">
            <path d="M4.30344,12.00948 C8.97369398,12.846333 13.3065871,15.0032089 16.78964,18.225 C18.8721464,20.1604746 20.5900401,22.4543009 21.86148,24.9972 C22.55621,26.3900507 23.1228528,27.8431864 23.55441,29.33866 C29.5615166,25.936036 32.5531935,18.9379183 30.8621756,12.2443663 C29.1711577,5.55081435 23.2146646,0.813307427 16.3122571,0.67206387 C9.40984953,0.530820313 3.26453718,5.02068871 1.30111,11.63946 C2.30821942,11.7044308 3.31069215,11.8279799 4.30344,12.00948 Z" id="Shape" fill="#5596E6"></path>
            <path d="M15.99936,19.07467 C12.6782985,16.0039309 8.54734707,13.9484387 4.095,13.15126 C3.07529276,12.9651506 2.04495132,12.8429491 1.01,12.78537 C0.9501,13.06396 0.899,13.34952 0.8526,13.63648 C-0.0201526724,19.2358674 2.26674275,24.8600706 6.79939128,28.2615312 C11.3320398,31.6629918 17.3712587,32.2870007 22.50364,29.88419 C22.0838098,28.3792287 21.5214418,26.9177253 20.82417,25.51952 C19.6149194,23.0995803 17.9806836,20.9166125 15.99936,19.07467 Z" id="Shape" fill="#3D70B2"></path>
            <path d="M21.86148,24.99715 C20.5900874,22.4540866 18.8721912,20.1601013 16.78964,18.22449 C13.3064886,15.0029394 8.97361732,12.8462548 4.30344,12.00949 C3.31072067,11.8275003 2.30824794,11.7034605 1.30111,11.638 C1.19029,12.0144067 1.09324333,12.3968567 1.00997,12.78535 C2.04476057,12.8429494 3.07494106,12.9651508 4.09449,13.15124 C8.54688907,13.9483183 12.6778852,16.0038311 15.9989,19.07467 C17.979964,20.916379 19.6140366,23.0990219 20.82325,25.51859 C21.5205115,26.9167998 22.0828792,28.3783022 22.50272,29.88326 C22.86056,29.7151667 23.21097,29.5336167 23.55395,29.33861 C23.1225393,27.8431526 22.5560507,26.3900174 21.86148,24.99715 Z" id="Shape" fill="#88B8F3"></path>
            <circle id="Oval" fill="#FFFFFF" cx="11.07193" cy="24.48825" r="2.00728"></circle>
            <circle id="Oval" fill="#FFFFFF" cx="15.87863" cy="8.99646" r="2.41357"></circle>
            <path d="M15.87863,13.40385 C14.0960053,13.4038581 12.4889049,12.3300371 11.8067183,10.683109 C11.1245318,9.03618086 11.5016044,7.14048057 12.7621076,5.87997171 C14.0226107,4.61946286 15.9183093,4.24238161 17.5652405,4.92456067 C19.2121717,5.60673973 20.286,7.21383533 20.286,8.99646 C20.2839543,11.4297386 18.3119086,13.4017933 15.87863,13.40385 Z M15.87863,5.14627 C13.7522233,5.14627 12.02843,6.87006326 12.02843,8.99647 C12.02843,11.1228767 13.7522233,12.84667 15.87863,12.84667 C18.0050367,12.84667 19.72883,11.1228767 19.72883,8.99647 C19.7265258,6.87109291 18.0040074,5.14878027 15.87863,5.14673 L15.87863,5.14627 Z" id="Shape" fill="#FFFFFF"></path>
            <path d="M24.66137,19.53528 C24.0134489,19.53528 23.4293264,19.1449812 23.1813787,18.5463798 C22.933431,17.9477783 23.0704871,17.2587589 23.528638,16.8006109 C23.9867888,16.3424629 24.6758091,16.2054111 25.274409,16.4533625 C25.8730089,16.701314 26.263304,17.2854389 26.2633,17.93336 C26.2633,18.3582173 26.0945254,18.7656735 25.794105,19.066092 C25.4936845,19.3665106 25.0862273,19.5352827 24.66137,19.53528 Z M24.66137,16.88862 C24.2388112,16.888616 23.857858,17.1431561 23.696149,17.5335484 C23.5344399,17.9239406 23.623821,18.3733036 23.9226137,18.6720992 C24.2214065,18.9708948 24.6707686,19.0602802 25.0611624,18.8985749 C25.4515562,18.7368695 25.7061,18.3559188 25.7061,17.93336 C25.7053393,17.3567614 25.2379688,16.8895968 24.66137,16.88909 L24.66137,16.88862 Z" id="Shape" fill="#FFFFFF"></path>
            <path d="M14.69274,14.62178 C14.3594518,14.5515701 14.0331215,14.4516509 13.71766,14.32322 L11.42249,21.45249 C11.7634212,21.4912101 12.0953206,21.5874504 12.40408,21.73712 L14.69274,14.62178 Z" id="Shape" fill="#FFFFFF"></path>
            <path d="M23.14441,15.54718 L20.34685,12.61218 C20.1320382,12.8775411 19.8941454,13.1233548 19.63596,13.34674 L22.39731,16.24181 C22.6024204,15.9671114 22.8555284,15.7317796 23.14441,15.54718 Z" id="Shape" fill="#FFFFFF"></path>
        </g>
    </g>
</svg>
